<svg width="600" height="600" xmlns="http://www.w3.org/2000/svg">

 <g>
  <title>background</title>
  <rect fill="none" id="canvas_background" height="402" width="582" y="-1" x="-1"/>
 </g>
 <g>
  <title>Layer 1</title>
  <g id="Layer_3">
   <path id="svg_4" d="m300,349.369c-1.019,0 -1.881,-0.353 -2.586,-1.058l-36.679,-35.386c-0.392,-0.313 -0.931,-0.822 -1.617,-1.528c-0.686,-0.705 -1.773,-1.988 -3.262,-3.851c-1.489,-1.86 -2.822,-3.771 -3.997,-5.73s-2.224,-4.33 -3.145,-7.112c-0.92,-2.782 -1.381,-5.486 -1.381,-8.111c0,-8.621 2.488,-15.361 7.465,-20.221c4.977,-4.859 11.854,-7.289 20.631,-7.289c2.43,0 4.909,0.421 7.436,1.264c2.527,0.843 4.879,1.979 7.054,3.41c2.174,1.43 4.046,2.772 5.613,4.026s3.057,2.586 4.467,3.997c1.411,-1.411 2.899,-2.743 4.467,-3.997c1.568,-1.254 3.438,-2.596 5.614,-4.026c2.175,-1.431 4.525,-2.567 7.054,-3.41c2.527,-0.842 5.006,-1.264 7.435,-1.264c8.778,0 15.655,2.43 20.632,7.289c4.978,4.859 7.466,11.6 7.466,20.221c0,8.66 -4.487,17.477 -13.461,26.451l-36.619,35.268c-0.706,0.705 -1.568,1.057 -2.587,1.057z" fill="#E91E63"/>
  </g>
 </g>
</svg>