<svg width="600" height="600" xmlns="http://www.w3.org/2000/svg">

 <g>
  <title>background</title>
  <rect fill="none" id="canvas_background" height="402" width="582" y="-1" x="-1"/>
 </g>
 <g>
  <title>Layer 1</title>
  <g id="Layer_2">
   <path id="svg_1" d="m371.987,227.641c47.628,47.628 85.039,98.708 106.914,143.552c26.358,54.033 30.096,99.722 11.103,118.714c-19.793,19.793 -68.267,15.884 -125.731,-12.979c-43.445,-21.821 -92.031,-59.119 -137.242,-104.331c-46.354,-46.354 -84.95,-95.545 -106.667,-139.816c-27.48,-56.023 -30.057,-103.743 -10.643,-123.157c18.838,-18.839 63.248,-16.056 116.694,9.757c45.159,21.812 97.48,60.167 145.572,108.26z" stroke-miterlimit="10" stroke-width="24" stroke="#E91E63" fill="none"/>
   <path id="svg_2" d="m272.931,201.125c65.052,-17.465 127.989,-24.354 177.767,-20.902c59.974,4.16 101.42,23.747 108.385,49.688c7.259,27.033 -20.345,67.073 -74.054,102.434c-40.608,26.733 -97.189,50.188 -158.941,66.769c-63.312,16.998 -125.207,25.858 -174.408,22.553c-62.26,-4.181 -104.884,-25.789 -112.004,-52.306c-6.907,-25.731 17.688,-62.811 66.75,-96.214c41.453,-28.224 100.817,-54.386 166.505,-72.022z" stroke-miterlimit="10" stroke-width="24" stroke="#E91E63" fill="none"/>
   <path id="svg_3" d="m200.469,273.707c17.357,-65.081 42.82,-123.05 70.671,-164.45c33.556,-49.882 71.225,-76.008 97.178,-69.086c27.045,7.212 47.949,51.123 51.76,115.315c2.883,48.533 -5.055,109.266 -21.531,171.046c-16.892,63.341 -40.126,121.389 -67.562,162.365c-34.716,51.852 -74.723,77.988 -101.252,70.913c-25.743,-6.865 -45.584,-46.692 -50.021,-105.881c-3.749,-50.009 3.232,-114.505 20.757,-180.222z" stroke-miterlimit="10" stroke-width="24" stroke="#E91E63" fill="none"/>
  </g>
 </g>
</svg>